<?xml version="1.0" encoding="UTF-8"?>
<svg width="100px" height="151px" viewBox="0 0 100 151" version="1.1" xmlns="http://www.w3.org/2000/svg" xmlns:xlink="http://www.w3.org/1999/xlink">
    <!-- Generator: Sketch 54.1 (76490) - https://sketchapp.com -->
    <title>train</title>
    <desc>Created with Sketch.</desc>
    <g id="train" stroke="none" stroke-width="1" fill="none" fill-rule="evenodd">
        <path d="M77.9954148,117.859421 C85.3329337,116.67201 92.6369727,108.988574 92.6369727,99.6243873 L92.6369727,31.1595331 C92.6369727,21.493771 84.5383441,12.6213237 73.5352543,12.6213237 L26.4650645,12.6213237 C15.4622937,12.6213237 7.3633462,21.493771 7.3633462,31.1595331 L7.3633462,99.6243873 C7.3633462,108.988574 14.6673852,116.67201 22.004904,117.859421 L0,151 L12.6955784,151 L28.435277,127.8322 L71.5650419,127.8322 L87.3047404,151 L100,151 L77.9954148,117.859421 Z M37.603987,19.668955 C37.603987,17.9882035 39.0598844,16.5763722 40.7338794,16.5763722 L59.2664394,16.5763722 C60.9404345,16.5763722 62.3963319,17.9882035 62.3963319,19.668955 L62.3963319,25.1113886 C62.3963319,26.7921402 61.0201485,28.2369462 59.2664394,28.2369462 L40.7338794,28.2369462 C38.9801703,28.2369462 37.603987,26.7921402 37.603987,25.1113886 L37.603987,19.668955 Z M17.5855571,41.5187252 C17.5855571,36.3964348 20.885081,31.9265961 27.1027769,31.9265961 L72.8975419,31.9265961 C79.1152378,31.9265961 82.4150806,36.3964348 82.4150806,41.5187252 L82.4150806,53.8442366 C82.4632279,59.7668849 78.1586692,63.3928262 72.8975419,63.3928262 L27.1027769,63.3928262 C21.8416496,63.3928262 17.5370909,59.7668849 17.5855571,53.8442366 L17.5855571,41.5187252 Z M26.0664943,107.872555 C21.4414851,107.872555 17.6923739,104.107672 17.6923739,99.4643157 C17.6923739,94.8209594 21.4414851,91.0563961 26.0664943,91.0563961 C30.6915034,91.0563961 34.4406146,94.8209594 34.4406146,99.4643157 C34.4406146,104.107672 30.6915034,107.872555 26.0664943,107.872555 Z M65.3655208,99.4646358 C65.3655208,94.8212796 69.114632,91.0567162 73.7396412,91.0567162 C78.3646503,91.0567162 82.1137615,94.8212796 82.1137615,99.4646358 C82.1137615,104.107992 78.3646503,107.872876 73.7396412,107.872876 C69.114632,107.872876 65.3655208,104.107672 65.3655208,99.4646358 Z M62.3191687,5.31181487 C62.3191687,8.24544921 59.9505486,10.6236297 57.0287066,10.6236297 C54.1068678,10.6236297 51.7382446,8.24544921 51.7382446,5.31181487 C51.7382446,2.37818053 54.1068678,0 57.0287066,0 C59.9505486,0 62.3191687,2.37818053 62.3191687,5.31181487 Z M48.2620743,5.31181487 C48.2620743,8.24544921 45.8934542,10.6236297 42.9716154,10.6236297 C40.0497735,10.6236297 37.6811534,8.24544921 37.6811534,5.31181487 C37.6811534,2.37818053 40.0497735,0 42.9716154,0 C45.8934542,0 48.2620743,2.37818053 48.2620743,5.31181487 Z" id="Shape" fill="#E28826" fill-rule="nonzero"></path>
    </g>
</svg>