<?xml version="1.0" encoding="UTF-8"?>
<svg width="230px" height="346px" viewBox="0 0 230 346" version="1.1" xmlns="http://www.w3.org/2000/svg" xmlns:xlink="http://www.w3.org/1999/xlink">
    <!-- Generator: Sketch 54.1 (76490) - https://sketchapp.com -->
    <title>train</title>
    <desc>Created with Sketch.</desc>
    <g id="train" stroke="none" stroke-width="1" fill="none" fill-rule="evenodd">
        <path d="M179.389454,270.061985 C196.265748,267.341162 213.065037,249.735409 213.065037,228.278397 L213.065037,71.3986652 C213.065037,49.2506276 194.438191,28.920384 169.131085,28.920384 L60.8696484,28.920384 C35.5632754,28.920384 16.9356963,49.2506276 16.9356963,71.3986652 L16.9356963,228.278397 C16.9356963,249.735409 33.7349859,267.341162 50.6112792,270.061985 L0,346 L29.1998304,346 L65.401137,292.913519 L164.599596,292.913519 L200.800903,346 L230,346 L179.389454,270.061985 Z M86.48917,45.0692612 C86.48917,41.2180026 89.8377341,37.9829455 93.6879227,37.9829455 L136.312811,37.9829455 C140.162999,37.9829455 143.511563,41.2180026 143.511563,45.0692612 L143.511563,57.5400031 C143.511563,61.3912616 140.346342,64.7018768 136.312811,64.7018768 L93.6879227,64.7018768 C89.6543918,64.7018768 86.48917,61.3912616 86.48917,57.5400031 L86.48917,45.0692612 Z M40.4467813,95.135622 C40.4467813,83.3984531 48.0356864,73.1563062 62.3363869,73.1563062 L167.664346,73.1563062 C181.965047,73.1563062 189.554685,83.3984531 189.554685,95.135622 L189.554685,123.378184 C189.665424,136.949286 179.764939,145.257734 167.664346,145.257734 L62.3363869,145.257734 C50.2357942,145.257734 40.3353092,136.949286 40.4467813,123.378184 L40.4467813,95.135622 Z M59.9529368,247.178173 C49.3154157,247.178173 40.69246,238.551354 40.69246,227.911611 C40.69246,217.271867 49.3154157,208.645782 59.9529368,208.645782 C70.5904579,208.645782 79.2134136,217.271867 79.2134136,227.911611 C79.2134136,238.551354 70.5904579,247.178173 59.9529368,247.178173 Z M150.340698,227.912344 C150.340698,217.272601 158.963654,208.646515 169.601175,208.646515 C180.238696,208.646515 188.861651,217.272601 188.861651,227.912344 C188.861651,238.552088 180.238696,247.178907 169.601175,247.178907 C158.963654,247.178907 150.340698,238.551354 150.340698,227.912344 Z M143.334088,12.1714433 C143.334088,18.8935459 137.886262,24.3428867 131.166025,24.3428867 C124.445796,24.3428867 118.997963,18.8935459 118.997963,12.1714433 C118.997963,5.44934081 124.445796,0 131.166025,0 C137.886262,0 143.334088,5.44934081 143.334088,12.1714433 Z M111.002771,12.1714433 C111.002771,18.8935459 105.554945,24.3428867 98.8347155,24.3428867 C92.1144789,24.3428867 86.6666527,18.8935459 86.6666527,12.1714433 C86.6666527,5.44934081 92.1144789,0 98.8347155,0 C105.554945,0 111.002771,5.44934081 111.002771,12.1714433 Z" id="Shape" fill="#E28826" fill-rule="nonzero"></path>
    </g>
</svg>