<?xml version="1.0" encoding="UTF-8"?>
<svg width="151px" height="100px" viewBox="0 0 151 100" version="1.1" xmlns="http://www.w3.org/2000/svg" xmlns:xlink="http://www.w3.org/1999/xlink">
    <!-- Generator: Sketch 54.1 (76490) - https://sketchapp.com -->
    <title>ferry</title>
    <desc>Created with Sketch.</desc>
    <g id="ferry" stroke="none" stroke-width="1" fill="none" fill-rule="evenodd">
        <path d="M20.3998309,79.2591962 L1,43.3175596 L20.3998309,43.3175596 L32.3186813,22.5541231 C32.3186813,22.5541231 32.8575655,21.9572276 33.967033,20.8913427 C35.1081995,19.8254579 37.2637363,19.6549163 37.2637363,19.6549163 L52.7011834,19.6549163 L52.7011834,12.3642641 L59.7066779,12.3642641 L63.6373626,0 L68.7092139,0 L66.6804734,6.86429832 L69.5650888,12.3642641 L88.0456467,12.3642641 L88.0456467,19.6549163 L118.159763,19.6549163 C118.159763,19.6549163 120.822485,19.6549163 122.502536,21.573509 C124.784869,24.1316326 125.070161,26.1781315 125.070161,26.1781315 L129.951817,43.3175596 L140.7612,43.3175596 L151,79.2591962 C151,79.2591962 139.144548,69.4530557 120.188504,70.7321175 C104.751057,71.9685439 98.7282333,79.0886546 81.1352494,79.0886546 C71.5304311,79.0886546 57.2024514,72.6080748 46.171175,72.3522625 C38.056213,72.1817209 24.8377008,76.8289788 20.3998309,79.2591962 L20.3998309,79.2591962 Z M28.8634827,95.6311872 C35.330093,93.4994175 44.1741336,89.9180445 59.7066779,94.30949 C67.3778529,96.4412597 74.63694,98.7435709 81.7692308,98.9993833 C91.0570583,99.0420187 96.1923077,96.8676136 103.387997,94.4800316 C109.854607,92.2203557 117.398986,90.3443984 123.104818,90.4296692 C133.058326,90.6428462 140.666103,92.7746158 144.882079,95.2901041 L141.838969,84.2049018 C133.59721,80.4529872 119.554522,78.2785821 103.387997,84.5033495 C96.5726965,87.3172855 89.535503,89.1506074 82.339814,89.0227012 C75.8415046,88.8521597 69.5967878,87.5304625 63.1935757,85.6545052 C42.7159763,79.2591962 34.9497041,83.6080063 24.5524091,87.3172855 L28.8634827,95.6311872 Z M28.6732883,43.3175596 L47.6610313,43.3175596 L47.6610313,27.755641 L40.2434489,27.755641 C40.2434489,27.755641 38.7218935,28.0114534 36.9784446,29.5036922 C35.9323753,30.3564 33.8402367,34.1935854 33.8402367,34.1935854 L28.6732883,43.3175596 Z M77.3947591,43.3175596 L97.1115807,43.3175596 L97.1115807,27.755641 L77.3947591,27.755641 L77.3947591,43.3175596 L77.3947591,43.3175596 Z M119.332629,31.5501911 C119.332629,31.5501911 118.825444,29.8447753 118.001268,29.0347028 C116.891801,28.0114534 115.87743,27.755641 115.87743,27.755641 L102.120034,27.755641 L102.120034,43.3175596 L122.661031,43.3175596 L119.332629,31.5501911 Z M52.7011834,43.3175596 L72.5448014,43.3175596 L72.4814032,27.755641 L52.7011834,27.755641 L52.7011834,43.3175596 Z" id="Shape" fill="#E28826" fill-rule="nonzero"></path>
    </g>
</svg>