<?xml version="1.0" encoding="UTF-8"?>
<svg width="36px" height="59px" viewBox="0 0 36 59" version="1.1" xmlns="http://www.w3.org/2000/svg" xmlns:xlink="http://www.w3.org/1999/xlink">
    <!-- Generator: Sketch 54.1 (76490) - https://sketchapp.com -->
    <title>hiker</title>
    <desc>Created with Sketch.</desc>
    <g id="Page-1" stroke="none" stroke-width="1" fill="none" fill-rule="evenodd">
        <g id="hiker" fill="#000000" fill-rule="nonzero">
            <path d="M18.2412308,13.5895317 C15.6455385,13.2375268 13.3796923,11.2301806 12.6953846,8.65962657 C12.4713846,7.81420263 12.4713846,6.18273646 12.6953846,5.32629324 C13.4621538,2.39210285 16.176,0.325987144 19.2203077,0.325987144 C21.0018462,0.325987144 22.6892308,1.04224059 23.9636923,2.32108968 C25.2732308,3.6238139 25.8867692,5.10284665 25.8867692,6.95775941 C25.8867692,8.83593511 25.2732308,10.3265993 23.9163077,11.6648301 C22.3827692,13.1903887 20.3772308,13.8717478 18.2412308,13.5895317 Z" id="Path"></path>
            <path d="M5.36246154,58.2495766 C4.74892308,58.1087747 4.14707692,57.6741252 3.85230769,57.1580554 C3.54523077,56.6297419 0.00553846154,42.509142 0.00553846154,41.8283951 C0.00553846154,41.0772473 0.607384615,40.126528 1.31507692,39.7622794 C1.82276923,39.4916948 5.37415385,38.646883 5.976,38.646883 C6.63692308,38.646883 7.45107692,38.9988879 7.80492308,39.4451689 L8.04061538,39.750648 L7.94646154,38.8231916 C7.81661538,37.4965923 7.84,36.1118356 8.01723077,35.3606878 C8.37107692,33.881655 8.97292308,32.8721662 13.3624615,26.2991634 L15.9821538,22.3903786 L16.1827692,18.106326 C16.3009231,15.7469749 16.4541538,13.6104582 16.5249231,13.3404857 C16.6073846,13.0705133 16.8553846,12.6009694 17.1033846,12.2838589 C18.5076923,10.4289461 21.4221538,10.6407612 22.6369231,12.6946333 L22.9556923,13.2345782 L22.9323077,15.7579942 C22.9206154,17.143363 22.8264615,19.6312724 22.7433846,21.2749822 C22.6018462,23.7867667 22.5427692,24.3383431 22.3421538,24.737486 C22.224,24.995827 21.1741538,26.7093256 20.0178462,28.5403633 L17.9175385,31.8736966 L19.4744615,37.9306296 C20.336,41.2639629 21.0436923,43.999194 21.0553846,44.022457 C21.0787692,44.0340884 21.6572308,43.106632 22.3649231,41.9685849 C23.0609231,40.8182941 23.6510769,39.8675748 23.6627692,39.8559433 C23.6744615,39.8326804 25.3618462,39.5155699 27.4270769,39.1280584 C29.48,38.7521784 31.1790769,38.4240486 31.2030769,38.4001735 C31.2264615,38.3769106 29.9993846,32.425273 28.4658462,25.1715234 C26.2830769,14.8066627 25.7169231,11.9196103 25.7993846,11.6729008 C25.8584615,11.4849608 26.0824615,11.2737578 26.3421538,11.1445874 C26.7316923,10.9566473 26.8141538,10.9450159 27.192,11.1090808 C27.4276923,11.2027447 27.664,11.4023162 27.7347692,11.5553618 C27.7938462,11.7077952 29.0683077,17.6594328 30.5667692,24.7956434 C32.0652308,31.9324661 33.3156923,37.8602286 33.3513846,37.9771555 C33.3870769,38.0946945 33.5286154,38.1767269 33.7052308,38.1767269 C34.4486154,38.1767269 35.6406154,39.1862158 35.8646154,40.019396 C36.1710769,41.1109173 35.9470769,41.9092032 35.0978462,42.730752 L34.4596923,43.3423223 L34.5778462,43.8467606 C34.8609231,45.0674524 34.5421538,45.6894297 33.6455385,45.6894297 C33.032,45.6894297 32.6307692,45.2315173 32.5126154,44.398337 C32.4535385,43.952056 32.3827692,43.811254 32.2295385,43.811254 C32.0523077,43.811254 27.8990769,44.5507704 27.3095385,44.6915724 C27.144,44.7270789 26.3889231,45.8534946 24.7846154,48.4711867 C22.8375385,51.6520866 22.3772308,52.321202 21.6695385,53.0252118 C20.3126154,54.3518111 18.7907692,54.962157 16.8203077,54.9737885 C15.1446154,54.9737885 14.2713846,54.7154475 13.0326154,53.8467606 C12.6430769,53.5651567 12.0886154,53.0252118 11.8055385,52.6493318 C11.5224615,52.2740639 11.2510769,51.9214469 11.2036923,51.8626773 C11.1563077,51.8039078 11.2744615,52.3671157 11.4633846,53.0950006 C11.6523077,53.834517 11.8055385,54.7148353 11.8055385,55.0552087 C11.8055385,55.9471585 11.3452308,56.7570759 10.6018462,57.1445874 C10.2830769,57.3086522 6.09476923,58.3769106 5.85846154,58.3536477 C5.78707692,58.3432406 5.56307692,58.307734 5.36246154,58.2495766 Z" id="Path" transform="translate(18.000371, 34.674131) rotate(-180.000000) translate(-18.000371, -34.674131) "></path>
            <path d="M27.3630769,49.3018811 C24.2246154,41.5663439 24,40.955998 24,40.2868826 C24.0116923,38.6670479 25.1212308,37.3526922 26.7612308,37.0472132 C27.9292308,36.8243788 29.3809231,37.4108496 30.0295385,38.3738125 C30.1827692,38.5850155 31.3981538,41.47268 32.7550769,44.7943819 L35.2092308,50.8396834 L33.616,53.2461725 C32.7427692,54.5727718 31.7636923,56.086699 31.4332308,56.6150124 C31.1027692,57.1433258 30.808,57.5773632 30.7723077,57.5773632 C30.7372308,57.5889947 29.2036923,53.8559062 27.3630769,49.3018811 Z" id="Path" transform="translate(29.604615, 47.288695) rotate(-180.000000) translate(-29.604615, -47.288695) "></path>
        </g>
    </g>
</svg>