<?xml version="1.0" encoding="UTF-8"?>
<svg width="300px" height="250px" viewBox="0 0 300 250" version="1.1" xmlns="http://www.w3.org/2000/svg" xmlns:xlink="http://www.w3.org/1999/xlink">
    <!-- Generator: Sketch 54.1 (76490) - https://sketchapp.com -->
    <title>post-marker-icon</title>
    <desc>Created with Sketch.</desc>
    <g id="post-marker-icon" stroke="none" stroke-width="1" fill="none" fill-rule="evenodd">
        <path d="M282.821684,43.3097222 C282.29249,43.3097222 278.561224,43.3215535 275.571429,43.4905967 L275.571429,36.3198663 C275.571429,27.636677 270.42898,21.0895782 262.700357,21.0895782 C261.824347,21.0895782 261.280204,21.1767181 260.395224,21.3546708 C259.770357,21.4780144 199.155235,33.9727572 151.569643,72.3270885 C142.361071,64.903251 132.061224,58.4496296 123.091837,52.8666872 L123.091837,45.2982819 C123.091837,31.93 121.480337,18.2784877 101.152714,11.1378909 L75.1803571,1.99674897 C72.471602,1.01154321 69.8226429,0.514403292 67.257398,0.514403292 C55.0650102,0.514403292 47.7908367,11.6350309 47.7908367,22.3880864 C47.7908367,22.4236831 47.7969592,22.4545473 47.8027755,22.4906584 C44.7621531,21.7374486 43.0101327,21.3758745 42.9054898,21.3577881 C42.0264898,21.1828498 39.9994082,21.0956687 39.123398,21.0956687 C31.4007551,21.0894959 24.428551,27.6367078 24.428551,36.3168827 L24.428551,43.4876029 C21.4387551,43.3221502 17.7104796,43.3067284 17.1782959,43.3067284 C7.99065306,43.3067284 0.510183673,50.8389712 0.510183673,60.097644 L0.510183673,192.276924 C0.510183673,200.456996 9.47957143,207.284228 15.4591633,208.766584 L15.4591633,223.198405 C15.4591633,232.460051 23.8096633,240.549733 33.0002959,240.549733 L127.104122,240.549733 C129.756071,243.562644 135.520398,249.588457 142.211561,249.588457 L161.459867,249.588457 C168.145051,249.588457 173.912367,243.562644 176.564316,240.549733 L274.273837,240.549733 C283.464469,240.549733 290.520388,232.460051 290.520388,223.20143 L290.520388,207.630679 C296.49998,205.0125 299.489776,199.122253 299.489776,192.279949 L299.489776,60.1006687 C299.489776,50.8419959 292.012296,43.3097016 282.821663,43.3097016 L282.821684,43.3097222 Z" id="Path" fill="#000000" fill-rule="nonzero"></path>
        <path d="M70.339551,12.2978601 C71.5474286,12.2978601 72.8898469,12.5599794 74.3757755,13.1023148 L100.228541,22.2675823 C112.444847,26.5580041 114.193878,32.5687551 114.193878,45.2952572 L114.193878,124.561831 L99.5648061,106.692305 C98.4256939,105.315401 96.8799694,104.580216 95.1907347,104.580216 C94.234,104.580216 92.7032245,104.820988 91.8152551,105.312377 L75.3265306,114.16429 L75.3265306,36.5849588 C75.3265306,31.4660082 75.9394388,19.4836523 63.5706531,19.4836523 C63.1281633,19.4836523 62.9846531,19.5370473 62.5571122,19.6342798 C63.3225,16.1121914 65.8937245,12.2977984 70.339551,12.2977984 L70.339551,12.2978601 Z" id="Bookmark" fill="#00A5A0" fill-rule="nonzero"></path>
        <path d="M266.673469,168.499095 C266.673469,171.499959 265.253316,173.886152 263.922857,174.154321 C257.739959,175.389609 206.877551,186.510226 162.030612,220.019825 L162.030612,84.6317593 L162.030612,83.7519959 C206.877551,46.3377469 265.833337,34.1896914 266.574806,34.0480761 C266.760173,34.1476646 266.67348,34.8675926 266.67348,36.3167901 L266.67348,168.499095 L266.673469,168.499095 Z M21.2829796,56.2742593 C21.4175204,56.2742593 24.5,56.2860905 27.4897959,56.4942798 L27.4897959,168.502171 C27.4897959,177.269702 34.6473673,185.338282 42.3311429,186.87785 C46.2956122,187.670267 70.5877041,192.740998 98.5632245,205.729619 C60.5270408,196.516193 27.4359796,196.109424 22.1380612,196.109424 C20.0452041,196.109424 18.5204082,194.392058 18.5204082,192.280031 L18.5204082,60.100751 C18.5204082,57.9916255 19.1871327,56.2742593 21.2829796,56.2742593 Z M266.673469,168.499095 C266.673469,171.499959 265.253316,173.886152 263.922857,174.154321 C257.739959,175.389609 206.877551,186.510226 162.030612,220.019825 L162.030612,84.6317593 L162.030612,83.7519959 C206.877551,46.3377469 265.833337,34.1896914 266.574806,34.0480761 C266.760173,34.1476646 266.67348,34.8675926 266.67348,36.3167901 L266.67348,168.499095 L266.673469,168.499095 Z M287.03099,196.109372 C281.730082,196.109372 248.579224,196.510257 210.546031,205.72357 C238.512582,192.734887 261.593806,187.664156 265.558276,186.874825 C273.245041,185.341245 278.632653,177.26964 278.632653,168.499095 L278.632653,56.4942181 C281.622449,56.2890226 286.202816,56.2771708 286.337357,56.2771708 C288.433204,56.2771708 290.591837,57.9915123 290.591837,60.1036008 L290.591837,192.282881 C290.591837,194.391883 289.123847,196.109249 287.03099,196.109249 L287.03099,196.109372 Z M30.4795918,223.201451 L30.4795918,209.329979 C51.4081633,210.119372 88.2633776,213.433601 124.978071,228.498128 L36.0615408,228.498128 C33.9686837,228.498128 30.4795918,225.310453 30.4795918,223.201451 Z M277.329102,228.498128 L184.809867,228.498128 C224.233316,213.433601 263.683673,209.688529 278.632653,209.188426 L278.632653,223.198426 C278.632653,225.310453 279.427939,228.498128 277.329102,228.498128 Z M42.6211531,34.0721502 C42.8483776,34.1195782 51.4081633,35.8407613 63.3673469,39.9322737 L63.3673469,124.143035 C63.3673469,126.227963 65.2000918,128.159228 66.9820102,129.21679 C68.7699082,130.277315 71.3441224,130.310463 73.1499592,129.30393 L93.7287245,117.978416 L115.904041,144.564352 C117.037173,145.929156 118.735378,146.676379 120.433582,146.676379 C121.100306,146.676379 121.713214,146.558961 122.36499,146.320556 C124.679092,145.47394 126.153061,143.259434 126.153061,140.779846 L126.153061,67.9217078 C132.132653,72.6097531 141.102041,77.8672942 150.071429,83.7514918 L150.071429,84.6312551 L150.071429,220.016296 C105.22449,186.503765 52.8671837,175.389136 46.6783061,174.153848 C45.3418673,173.885792 42.4387755,171.391019 42.4387755,168.498621 L42.4387755,36.3163066 C42.4387755,34.870144 42.2982551,34.1469959 42.6211531,34.071677 L42.6211531,34.0721502 Z" id="Pages" fill="#FFFFFF" fill-rule="nonzero"></path>
        <g id="Page-Lines" stroke-linecap="round" transform="translate(50.000000, 53.497942)" stroke="#000000" stroke-width="7">
            <path d="M119.591837,43.4156379 C145.612245,18.5185185 167.55102,10.3909465 208.367347,2.57201646" id="Path"></path>
            <path d="M120,60.6995885 C146.020408,35.8024691 167.959184,27.6748971 208.77551,19.8559671" id="Path"></path>
            <path d="M119.591837,77.3662551 C145.612245,52.4691358 167.55102,44.3415638 208.367347,36.5226337" id="Path"></path>
            <path d="M120.408163,95.781893 C146.428571,70.8847737 168.367347,62.7572016 209.183673,54.9382716" id="Path"></path>
            <path d="M120.816327,112.962963 C146.836735,88.0658436 168.77551,79.9382716 209.591837,72.1193416" id="Path"></path>
            <path d="M121.428571,131.790123 C147.44898,106.893004 169.387755,98.7654321 210.204082,90.9465021" id="Path"></path>
            <path d="M121.428571,148.045267 C147.44898,123.148148 169.387755,115.020576 210.204082,107.201646" id="Path"></path>
            <path d="M12.244898,2.67489712 C9.18367347,2.05761317 6.02040816,1.44032922 2.75510204,0.823045267" id="Path"></path>
            <path d="M91.5306122,41.563786 C85.9183673,36.2139918 86.6326531,35.6995885 81.2244898,31.7901235" id="Path"></path>
            <path d="M9.28571429,19.1358025 C5.81632653,18.4156379 6.2244898,18.7242798 2.34693878,17.9012346" id="Path"></path>
            <path d="M91.122449,58.744856 C85.1020408,52.9835391 86.4285714,54.3209877 80.6122449,50.1028807" id="Path"></path>
            <path d="M8.26530612,35.8024691 C4.89795918,35.0823045 6.42857143,35.3909465 2.75510204,34.6707819" id="Path"></path>
            <path d="M91.5306122,75.5144033 C85.5102041,69.7530864 85.8163265,71.090535 80,66.872428" id="Path"></path>
            <path d="M8.36734694,54.7325103 C4.08163265,53.8065844 6.73469388,53.909465 1.93877551,52.9835391" id="Path"></path>
            <path d="M90.7142857,93.8271605 C85.8163265,89.0946502 85.1020408,89.0946502 80.2040816,85.3909465" id="Path"></path>
            <path d="M8.87755102,71.2962963 C5.6122449,70.5761317 5.20408163,70.8847737 1.63265306,70.2674897" id="Path"></path>
            <path d="M57.6530612,88.2716049 C48.5714286,83.436214 40.9183673,79.7325103 29.6938776,76.6460905" id="Path"></path>
            <path d="M90.3061224,111.00823 C84.3877551,105.349794 79.6938776,101.54321 73.9795918,97.4279835" id="Path"></path>
            <path d="M89.6938776,129.835391 C63.6734694,104.938272 41.7346939,96.8106996 0.918367347,88.9917695" id="Path"></path>
            <path d="M89.6938776,146.193416 C63.6734694,121.296296 41.7346939,113.168724 0.918367347,105.349794" id="Path"></path>
        </g>
    </g>
</svg>