<?xml version="1.0" encoding="UTF-8"?>
<svg width="309px" height="309px" viewBox="0 0 309 309" version="1.1" xmlns="http://www.w3.org/2000/svg" xmlns:xlink="http://www.w3.org/1999/xlink">
    <!-- Generator: Sketch 54.1 (76490) - https://sketchapp.com -->
    <title>pencil</title>
    <desc>Created with Sketch.</desc>
    <g id="pencil" stroke="none" stroke-width="1" fill="none" fill-rule="evenodd">
        <g id="Tip" transform="translate(0.000000, 209.000000)" fill-rule="nonzero">
            <path d="M49.999709,83.333343 L99,66 C94.5088548,52.2064671 85.7297171,38.1703659 73.0506853,25.4917341 C60.3722354,12.8132187 46.7935249,4.49114778 33,0 L16.6667637,49.9999709 L0,100 L49.999709,83.333343 Z" id="path3777-2-4-3-9-6" fill="#F9D69A"></path>
            <path d="M0,100 L46.1538462,84.6153443 C44.349224,77.9808064 40.3465406,71.1160053 34.4951168,65.2643619 C28.6436929,59.4127184 22.0192912,55.6506065 15.3846154,53.8461538 L0,100 L0,100 Z" id="path3838-7-1-1-39-3" fill="#4D4D4D"></path>
        </g>
        <g id="Body" transform="translate(33.000000, 26.000000)" fill-rule="nonzero">
            <path d="M65.9116462,249 L249,65.9117732 C244.559706,52.274434 235.673938,37.9385127 223.139039,25.4035073 C210.603565,12.8684444 196.725702,4.44034895 183.088354,0 L0,183.088284 C13.6373487,187.528576 27.5152109,195.956729 40.0506853,208.491734 C52.5855843,221.02674 61.4713518,235.362718 65.9116462,249 Z" id="rect3773-4-9-3-9-3-9" fill="#9DD692"></path>
            <path d="M3.55271368e-15,183.088284 C6.62493471,185.277609 12.6835935,187.890372 19.241197,192.003686 L201.22572,8.3333042 C194.668117,4.2200489 189.713288,2.18932461 183.088354,-1.0658141e-14 L3.55271368e-15,183.088284 Z" id="rect3773-4-9-5-1-9-6-4" fill="#BBE3A4"></path>
            <path d="M65.9116462,249 C63.7226156,242.374835 59.8705984,234.592187 55.7571132,228.034814 L240.527937,47.4097101 C244.641422,53.9670258 246.810969,59.2865507 249,65.9117732 L65.9116462,249 Z" id="rect3773-4-9-5-2-3-8-7-2" fill="#89BB80"></path>
        </g>
        <path d="M223.778484,20.2769834 C227.54909,21.5391212 230.553044,22.6608284 232.790346,23.642105 C235.027648,24.6233815 238.085416,26.1603346 241.963651,28.2529642 C251.19417,34.2505211 258.024554,39.3517198 262.454803,43.5565603 C266.885052,47.7614008 273.189934,55.1271521 281.369448,65.6538143 C282.855569,68.0058427 284.17568,70.3848644 285.32978,72.7908794 C286.48388,75.1968945 287.995233,78.7207773 289.863839,83.3625281 L308.778484,63.4480728 C306.909878,58.806322 305.398525,55.2824391 304.244425,52.8764241 C303.090324,50.4704091 301.770214,48.0913874 300.284093,45.739359 C292.104579,35.2126968 285.799697,27.8469454 281.369448,23.642105 C276.939199,19.4372645 270.108815,14.3360658 260.878296,8.33850886 C257.000061,6.24587928 253.942293,4.7089262 251.704991,3.72764962 C249.467689,2.74637304 246.463735,1.62466586 242.693129,0.3625281 L223.778484,20.2769834 Z" id="Path-2-Copy" fill="#FFA5C4" transform="translate(266.278484, 41.862528) rotate(1.000000) translate(-266.278484, -41.862528) "></path>
        <path d="M216.088354,26 C219.849048,27.3186815 222.845106,28.490641 225.076528,29.5158788 C227.307949,30.5411165 230.35768,32.146925 234.22572,34.3333042 C243.431976,40.5995513 250.244406,45.9292834 254.66301,50.3225005 C259.081614,54.7157175 265.369923,62.4114541 273.527937,73.4097101 C275.010151,75.8671092 276.326792,78.352711 277.477859,80.8665153 C278.628926,83.3803196 280.136306,87.0620723 282,91.9117732 L290.058856,84.1820626 C288.195162,79.3323617 286.687782,75.6506091 285.536715,73.1368048 C284.385649,70.6230005 283.069008,68.1373987 281.586793,65.6799996 C273.428779,54.6817436 267.140471,46.986007 262.721867,42.59279 C258.303262,38.1995729 251.490832,32.8698408 242.284577,26.6035937 C238.416536,24.4172144 235.366805,22.811406 233.135384,21.7861682 C230.903963,20.7609305 227.907905,19.5889709 224.14721,18.2702895 L216.088354,26 Z" id="Path-2" fill="#E6E6E6"></path>
    </g>
</svg>