<?xml version="1.0" encoding="UTF-8"?>
<svg width="28px" height="28px" viewBox="0 0 28 28" version="1.1" xmlns="http://www.w3.org/2000/svg" xmlns:xlink="http://www.w3.org/1999/xlink">
    <!-- Generator: Sketch 54.1 (76490) - https://sketchapp.com -->
    <title>stairs-down</title>
    <desc>Created with Sketch.</desc>
    <g id="Page-1" stroke="none" stroke-width="1" fill="none" fill-rule="evenodd">
        <g id="stairs-down" fill="#000000" fill-rule="nonzero">
            <path d="M0,0 L-7.10542736e-15,2.29214784 L5.89163621,2.29214784 L5.89163621,10.5781767 L13.3068059,10.5781767 L13.3068059,19.7479799 L20.9967426,19.7479799 L20.9967426,28 L28,28 L28,25.7077007 L23.0565762,25.7077007 L23.0565762,17.4559079 L15.3666395,17.4559079 L15.3666395,8.28602885 L7.95146985,8.28602885 L7.95146985,0 L0,0 Z M25.7481602,11.9981923 L18.9299473,11.0079089 C18.8302384,10.9938325 18.7526596,10.907089 18.7388386,10.7969458 C18.7247707,10.6869855 18.7784918,10.5800414 18.8701384,10.5354357 L21.6077729,9.21636803 L17.0650947,4.169707 C16.9785487,4.07245192 16.9780551,3.91633193 17.0650947,3.81953387 L18.6376488,2.07232447 C18.7241949,1.97561782 18.8652846,1.97616625 18.9522419,2.07232447 L23.4950023,7.11962534 L24.6822128,4.07839325 C24.7217838,3.97684213 24.8181197,3.91633193 24.9170882,3.93196221 C24.9668603,3.94009726 25.0107092,3.96578211 25.0435342,4.00225276 C25.0770995,4.03927185 25.0999701,4.08899625 25.106716,4.1449362 L25.9980906,11.7206863 C26.0070578,11.7968268 25.9841873,11.8727844 25.9348264,11.9273533 C25.886206,11.9809167 25.8169363,12.0074242 25.7481602,11.9981923 Z" id="Shape"></path>
        </g>
    </g>
</svg>