<?xml version="1.0" encoding="UTF-8"?>
<svg width="29px" height="28px" viewBox="0 0 29 28" version="1.1" xmlns="http://www.w3.org/2000/svg" xmlns:xlink="http://www.w3.org/1999/xlink">
    <!-- Generator: Sketch 54.1 (76490) - https://sketchapp.com -->
    <title>stairs-up</title>
    <desc>Created with Sketch.</desc>
    <g id="Page-1" stroke="none" stroke-width="1" fill="none" fill-rule="evenodd">
        <g id="stairs-up" fill="#000000" fill-rule="nonzero">
            <path d="M29,0 L29,2.29214784 L22.8979482,2.29214784 L22.8979482,10.5781767 L15.217951,10.5781767 L15.217951,19.7479799 L7.25337375,19.7479799 L7.25337375,28 L0,28 L0,25.7077007 L5.11997462,25.7077007 L5.11997462,17.4559079 L13.0845519,17.4559079 L13.0845519,8.28602885 L20.7645491,8.28602885 L20.7645491,0 L29,0 Z M12.7481602,2.0018077 L5.92994729,2.99209107 C5.83023839,3.00616747 5.7526596,3.09291095 5.73883857,3.20305415 C5.72477073,3.31301455 5.77849178,3.41995857 5.8701384,3.46456428 L8.60777288,4.78363197 L4.06509474,9.830293 C3.97854873,9.92754808 3.97805512,10.0836681 4.06509474,10.1804661 L5.63764885,11.9276755 C5.72419485,12.0243822 5.86528459,12.0238337 5.95224193,11.9276755 L10.4950023,6.88037466 L11.6822128,9.92160675 C11.7217838,10.0231579 11.8181197,10.0836681 11.9170882,10.0680378 C11.9668603,10.0599027 12.0107092,10.0342179 12.0435342,9.99774724 C12.0770995,9.96072815 12.0999701,9.91100375 12.106716,9.8550638 L12.9980906,2.27931373 C13.0070578,2.20317324 12.9841873,2.12721556 12.9348264,2.07264669 C12.886206,2.01908327 12.8169363,1.99257578 12.7481602,2.0018077 Z" id="Shape"></path>
        </g>
    </g>
</svg>